<svg xmlns="http://www.w3.org/2000/svg" viewBox="0 0 315.05 101.39"><defs><style>.cls-1{fill:#fff;}.cls-2{fill:#ed6c00;}</style></defs><title>アセット 6</title><g id="レイヤー_2" data-name="レイヤー 2"><g id="レイヤー_1-2" data-name="レイヤー 1"><path class="cls-1" d="M7.69,2.06,7.47,88.92a5.91,5.91,0,0,0,.39,2.58c.26.51,1,.72,2.25.73L24,92.29c.55,0,.94.34,1.21,1a6.69,6.69,0,0,1,.39,2.51,8.13,8.13,0,0,1-.35,2.52c-.21.75-.52,1.13-.91,1.14l-22.2-.06A2.67,2.67,0,0,1,.63,99,2.24,2.24,0,0,1,0,97.15L.25,2C.25,1.44.63,1,1.39.56A5.73,5.73,0,0,1,4,0C6.45,0,7.69.7,7.69,2.06Z"/><path class="cls-1" d="M65.57,4.16c0,2.29-.7,3.43-2.06,3.42l-13.36,0a3,3,0,0,0-2.54,1.13A1.93,1.93,0,0,0,47.14,10l0,11.55a11.47,11.47,0,0,0,.27,2.87c.19.61.93.93,2.24.9l13.15.05a2.26,2.26,0,0,1,1.94.93,22.57,22.57,0,0,1,1.94,5.26c0,.46-.41.75-1.21.87a25.3,25.3,0,0,1-2.57.16l-13.05,0c-1.22,0-2,.2-2.29.61a6.12,6.12,0,0,0-.46,3l-.14,54.47a1.65,1.65,0,0,0,.73,1.44,2.66,2.66,0,0,0,1.44.51l14.18.05c.38,0,.69.35.92,1.08a8.49,8.49,0,0,1,.33,2.57c0,2.22-.42,3.32-1.27,3.32l-22.19,0a1.36,1.36,0,0,1-.91-.29c-.22-.21-.46-.41-.69-.64l.16-62c0-2.2-.66-3.46-2-3.82A3.49,3.49,0,0,1,35,30.32c-.42-1.24-.82-2.48-1.19-3.7,0-.91.61-1.37,1.8-1.36a5.28,5.28,0,0,0,3.19-.68c.57-.47.84-1.53.85-3.23l0-19A2.5,2.5,0,0,1,40.3.78,1.55,1.55,0,0,1,41.46.09l22,.07c.63,0,1.12.41,1.5,1.26A6.2,6.2,0,0,1,65.57,4.16Z"/><path class="cls-1" d="M82.75,3.63q1.35,6.75,4.06,20.73c1.28,6.71,2.57,13.38,3.83,20,.47,2.13,1.88,9,4.31,20.72.59,3,1.17,4.45,1.7,4.47s1.15-1.48,1.85-4.46q.68-2.85,5-21.16c2.56-11,4.08-17.56,4.64-19.78q2.19-9.6,4.62-20.47C113,2.57,114.13,2,116.28,2a7.65,7.65,0,0,1,2.79.47c.81.31,1.2.72,1.2,1.25-2.61,11.59-5.14,22.39-7.51,32.38q-4.62,19.42-8,33.16-4,16.13-8,32.13h-.68Q93.74,91.06,89,69.11q-3.72-16.95-6.89-32.29-3.5-16.62-7-33.21c0-.53.38-.95,1.15-1.26a7.87,7.87,0,0,1,2.86-.45C81.29,1.9,82.52,2.5,82.75,3.63Z"/><path class="cls-1" d="M161.7,4.4c0,2.3-.71,3.44-2.09,3.44l-13.35,0a3.09,3.09,0,0,0-2.54,1.15,2.09,2.09,0,0,0-.47,1.26l0,11.54a10,10,0,0,0,.28,2.87c.19.63.94.93,2.22.93l13.17,0a2.26,2.26,0,0,1,1.94.92,22.41,22.41,0,0,1,1.93,5.27c0,.45-.4.74-1.21.85a16.12,16.12,0,0,1-2.57.16l-13,0c-1.23,0-2,.21-2.3.63a6.21,6.21,0,0,0-.46,3l-.14,54.47a1.59,1.59,0,0,0,.74,1.43,2.76,2.76,0,0,0,1.43.52l14.2,0c.37,0,.68.35.9,1.08a8.63,8.63,0,0,1,.34,2.58c0,2.21-.43,3.33-1.27,3.33l-22.21-.07a1.52,1.52,0,0,1-.91-.28c-.21-.21-.45-.41-.68-.65l.17-62c0-2.23-.67-3.5-2-3.85a3.5,3.5,0,0,1-2.62-2.4c-.42-1.26-.8-2.5-1.19-3.72,0-.92.6-1.39,1.8-1.37a5.16,5.16,0,0,0,3.2-.69c.57-.44.85-1.53.85-3.21l.05-19A2.47,2.47,0,0,1,136.42,1a1.59,1.59,0,0,1,1.15-.68L159.64.4c.61,0,1.1.42,1.49,1.25A6.6,6.6,0,0,1,161.7,4.4Z"/><path class="cls-1" d="M178.41,2.49l-.23,86.87a6.37,6.37,0,0,0,.39,2.58c.28.49,1,.74,2.25.74l13.93,0a1.36,1.36,0,0,1,1.21,1,7,7,0,0,1,.39,2.53,8.61,8.61,0,0,1-.34,2.51c-.24.77-.54,1.16-.92,1.14l-22.2,0a2.67,2.67,0,0,1-1.54-.46,2.18,2.18,0,0,1-.63-1.84L171,2.48A1.72,1.72,0,0,1,172.11,1a5.45,5.45,0,0,1,2.58-.56C177.17.44,178.4,1.13,178.41,2.49Z"/><path class="cls-1" d="M313.57,8a37.86,37.86,0,0,0-22,7.16,39.94,39.94,0,0,0-14.82,18.49,45.78,45.78,0,0,0-3.35,17.06,42.69,42.69,0,0,0,2.53,14.81,38.81,38.81,0,0,0,7.8,12.89A48.31,48.31,0,0,0,295,87.71q6.47,3.9,11.15,3.91c.46,0,.83-.37,1.11-1.14a16.06,16.06,0,0,0,.4-4.35v-3l.07-26.08s-.33-2.18-.84-2.64a1.68,1.68,0,0,0-1.7-.36L291.9,54c-.8-.13-1.08-2.26-2-4.56C289,47,291,46.64,292,46.72l20.4.06,1.28.11c.77.08,1.27,1.27,1.28,1.69l-.12,50.5c0,.76-.88,1.16-2.65,1.15a20.76,20.76,0,0,1-4.92-.48,46.84,46.84,0,0,1-23.08-10.42,46.69,46.69,0,0,1-15-20.5,39.75,39.75,0,0,1-2.39-8.69,59.64,59.64,0,0,1-.78-9.53,54.21,54.21,0,0,1,2.5-16.43,43.42,43.42,0,0,1,7.37-13.89A54.44,54.44,0,0,1,293,5.9,43.21,43.21,0,0,1,313.59.78c.36,0,.71.45,1,1.32a8.2,8.2,0,0,1,.46,2.81C315,7,314.55,8,313.57,8Z"/><path class="cls-2" d="M241.71,80.27a2.53,2.53,0,0,1-1.26-.34L226,72.31l-14.5,7.56a2.69,2.69,0,0,1-3.9-2.85l2.81-16.11L198.71,49.47a2.7,2.7,0,0,1,1.5-4.59l16.2-2.31,7.28-14.65a2.69,2.69,0,0,1,4.83,0l7.2,14.69L251.9,45a2.65,2.65,0,0,1,2.17,1.83,2.68,2.68,0,0,1-.69,2.76L241.64,61l2.73,16.13a2.69,2.69,0,0,1-2.66,3.14ZM226,66.57a2.89,2.89,0,0,1,1.25.31l10.89,5.77-2-12.16a2.75,2.75,0,0,1,.8-2.38l8.84-8.58-12.2-1.79a2.7,2.7,0,0,1-2-1.48l-5.43-11.07-5.47,11a2.72,2.72,0,0,1-2,1.46l-12.2,1.76,8.79,8.6a2.76,2.76,0,0,1,.77,2.4l-2.12,12.14,10.93-5.71a2.89,2.89,0,0,1,1.25-.31Z"/></g></g></svg>